<svg xmlns="http://www.w3.org/2000/svg" xmlns:xlink="http://www.w3.org/1999/xlink" width="32px" height="32px" viewBox="0 0 32 32" version="1.1">
  <g id="surface1">
    <path style=" stroke:none;fill-rule:nonzero;fill:rgb(50%,50%,50%);fill-opacity:1;" d="M 17.679688 19.742188 C 17.703125 19.285156 18.234375 19.4375 18.234375 19.4375 L 22.375 20.289062 L 30.910156 23.542969 C 30.910156 21.945312 30.660156 21.769531 30.277344 21.492188 L 18.097656 12.753906 C 18.097656 12.753906 17.765625 8.75 17.765625 5.21875 C 17.765625 3.582031 16.980469 0 15.957031 0 C 14.929688 0 14.144531 3.632812 14.144531 5.21875 C 14.144531 8.5625 13.816406 12.753906 13.816406 12.753906 L 1.632812 21.492188 C 1.164062 21.820312 1 22.007812 1 23.542969 L 9.535156 20.289062 L 13.664062 19.453125 C 13.664062 19.453125 14.195312 19.285156 14.222656 19.753906 C 14.246094 20.210938 14.144531 24.363281 14.613281 26.570312 C 14.675781 26.859375 14.449219 26.886719 14.296875 27.0625 L 10.828125 29.253906 C 10.714844 29.378906 10.664062 29.734375 10.664062 29.734375 L 10.597656 30.976562 L 15.132812 29.910156 L 15.929688 32.039062 L 16.726562 29.910156 L 21.261719 30.976562 L 21.199219 29.734375 C 21.210938 29.734375 21.148438 29.378906 21.035156 29.253906 L 17.5625 27.0625 C 17.414062 26.886719 17.183594 26.859375 17.246094 26.570312 C 17.753906 24.351562 17.652344 20.210938 17.679688 19.742188 Z M 17.679688 19.742188 "/>
  </g>
</svg>